<svg width="159" height="30" viewBox="0 0 159 30" fill="none" xmlns="http://www.w3.org/2000/svg">
<g clip-path="url(#clip0_10719_10410)">
<g clip-path="url(#clip1_10719_10410)">
<path d="M128.55 7.35156C126.841 7.35118 125.155 7.74395 123.622 8.49949C122.089 9.25503 120.751 10.3531 119.71 11.7087C118.669 13.0643 117.955 14.6412 117.621 16.3173C117.287 17.9934 117.343 19.7238 117.785 21.3747C118.227 23.0255 119.043 24.5526 120.17 25.8377C121.296 27.1228 122.703 28.1315 124.282 28.7858C125.861 29.4401 127.569 29.7224 129.275 29.6109C130.98 29.4995 132.637 28.9972 134.117 28.1429V29.6347H139.685V18.4831C139.685 17.0208 139.398 15.5729 138.838 14.2219C138.279 12.8709 137.459 11.6434 136.425 10.6096C135.39 9.57578 134.163 8.75593 132.812 8.19689C131.461 7.63785 130.013 7.3506 128.55 7.35156ZM134.117 18.4858V18.5361C134.11 20.017 133.516 21.4349 132.466 22.4786C131.415 23.5222 129.993 24.1065 128.512 24.1032C127.031 24.0999 125.612 23.5092 124.566 22.4608C123.52 21.4124 122.933 19.9919 122.933 18.5109C122.933 17.03 123.52 15.6095 124.566 14.5611C125.612 13.5127 127.031 12.922 128.512 12.9187C129.993 12.9154 131.415 13.4996 132.466 14.5433C133.516 15.587 134.11 17.0048 134.117 18.4858Z" fill="#00B26B"/>
<path d="M48.3833 23.64C47.8022 23.9194 47.1652 24.0634 46.5204 24.0614C45.9514 24.0616 45.3879 23.9497 44.8621 23.7321C44.3363 23.5144 43.8586 23.1953 43.4562 22.7929C43.0539 22.3905 42.7347 21.9128 42.5171 21.387C42.2994 20.8613 42.1875 20.2977 42.1878 19.7287V12.9262H46.4071C46.871 11.107 47.1059 9.23699 47.1064 7.35956H42.1878V0.834961C40.3021 0.837849 38.427 1.11497 36.6211 1.65762V7.35316V19.7296C36.6212 21.4839 37.0871 23.2068 37.9713 24.7219C38.8555 26.2371 40.1263 27.4903 41.6536 28.3534C43.1809 29.2164 44.91 29.6584 46.6642 29.634C48.4183 29.6097 50.1346 29.12 51.6374 28.2149C50.2389 26.9394 49.1293 25.3796 48.3833 23.64Z" fill="#00B26B"/>
<path d="M119.806 8.77173C118.304 7.86666 116.588 7.37674 114.834 7.35206C113.08 7.32737 111.351 7.7688 109.824 8.63123C108.297 9.49366 107.026 10.7462 106.141 12.2607C105.257 13.7753 104.79 15.4975 104.789 17.2515V29.6271H110.365V17.2415C110.365 16.6734 110.476 16.1107 110.693 15.5858C110.911 15.0609 111.229 14.5839 111.631 14.1822C112.033 13.7804 112.51 13.4619 113.035 13.2446C113.559 13.0274 114.122 12.9157 114.69 12.9161C115.335 12.914 115.972 13.0581 116.553 13.3375C117.291 11.5963 118.401 10.0379 119.806 8.77173Z" fill="#00B26B"/>
<path d="M10.0466 0.36426C9.44389 0.364441 8.85479 0.543327 8.35375 0.8783C7.85271 1.21327 7.46224 1.68929 7.23173 2.24616C7.00121 2.80304 6.94097 3.41576 7.05867 4.00685C7.17636 4.59795 7.46669 5.14088 7.89292 5.56698C8.31916 5.99309 8.86216 6.28325 9.45329 6.40076C10.0444 6.51828 10.6571 6.45787 11.2139 6.22719C11.7707 5.9965 12.2466 5.6059 12.5815 5.10476C12.9163 4.60362 13.095 4.01445 13.095 3.41176C13.0954 3.01137 13.0167 2.61485 12.8637 2.24489C12.7106 1.87493 12.486 1.53879 12.2029 1.25572C11.9197 0.972654 11.5835 0.748208 11.2135 0.595238C10.8435 0.442269 10.447 0.363779 10.0466 0.36426Z" fill="#00B26B"/>
<path d="M24.8336 7.35156C22.2078 7.35229 19.6897 8.39547 17.8326 10.2519C15.9755 12.1083 14.9314 14.626 14.9297 17.2518V29.6273H20.5055V17.2418C20.5055 16.0927 20.962 14.9906 21.7745 14.1781C22.587 13.3656 23.6891 12.9091 24.8382 12.9091C25.9873 12.9091 27.0893 13.3656 27.9018 14.1781C28.7144 14.9906 29.1708 16.0927 29.1708 17.2418V29.6273H34.7384V17.2418C34.7362 14.6169 33.6915 12.1003 31.8341 10.2456C29.9766 8.39086 27.4585 7.34987 24.8336 7.35156Z" fill="#00B26B"/>
<path d="M7.26172 29.6273H12.8284V7.35156C10.9428 7.35461 9.06761 7.63172 7.26172 8.17422V29.6273Z" fill="#00B26B"/>
<path d="M72.8906 29.628H78.4573V0.834961C76.5716 0.836651 74.6962 1.11379 72.8906 1.65762V29.628Z" fill="#00B26B"/>
<path d="M91.8491 7.35225C89.8944 7.34928 87.9737 7.86397 86.2824 8.84401V0.834961C84.3966 0.839037 82.5213 1.11613 80.7148 1.65762V18.4975C80.7163 20.7002 81.3708 22.853 82.5957 24.6837C83.8206 26.5145 85.5608 27.9409 87.5964 28.7827C89.6319 29.6244 91.8713 29.8437 94.0315 29.4129C96.1916 28.982 98.1755 27.9203 99.7323 26.3619C101.289 24.8036 102.349 22.8187 102.778 20.6581C103.206 18.4975 102.985 16.2583 102.141 14.2236C101.297 12.1889 99.8691 10.4501 98.0372 9.22704C96.2052 8.00395 94.0518 7.35153 91.8491 7.35225ZM91.8491 24.0541C91.1179 24.0542 90.3939 23.9102 89.7185 23.6305C89.043 23.3507 88.4292 22.9406 87.9123 22.4236C87.3953 21.9065 86.9853 21.2927 86.7056 20.6172C86.426 19.9416 86.2822 19.2176 86.2824 18.4865V18.4435C86.2904 17.3434 86.6239 16.2703 87.2409 15.3595C87.858 14.4487 88.7309 13.741 89.7496 13.3256C90.7684 12.9103 91.8873 12.8059 92.9652 13.0257C94.0432 13.2454 95.032 13.7795 95.8068 14.5604C96.5817 15.3414 97.1079 16.3343 97.3192 17.414C97.5305 18.4936 97.4173 19.6117 96.994 20.6271C96.5707 21.6426 95.8562 22.5099 94.9406 23.1198C94.0249 23.7297 92.9492 24.0548 91.8491 24.0541Z" fill="#00B26B"/>
<path d="M71.2012 21.1264C69.4824 20.4405 67.6666 20.0287 65.8201 19.9061C65.6101 20.7088 65.2236 21.4546 64.6888 22.0889C64.154 22.7233 63.4844 23.2303 62.7287 23.573C61.9731 23.9157 61.1505 24.0855 60.3209 24.0699C59.4914 24.0543 58.6757 23.8537 57.9335 23.4829L70.5311 13.8111C69.7175 12.0553 68.4602 10.5419 66.8834 9.41999C65.3066 8.29811 63.4646 7.60655 61.5391 7.41347C59.6135 7.2204 57.6709 7.53248 55.9028 8.31894C54.1346 9.10541 52.6019 10.3391 51.4558 11.8984C50.3097 13.4577 49.5898 15.2888 49.367 17.2111C49.1442 19.1335 49.4263 21.0807 50.1853 22.8608C50.9444 24.6409 52.1543 26.1924 53.6957 27.3625C55.2371 28.5325 57.0569 29.2806 58.9755 29.5331C61.6861 29.8494 64.4194 29.1713 66.6679 27.6247C68.9163 26.0781 70.5271 23.7681 71.2012 21.1237V21.1264ZM54.8988 17.7654C55.0155 16.8846 55.3409 16.0445 55.848 15.315C56.3552 14.5855 57.0293 13.9877 57.8142 13.5715C58.5992 13.1553 59.4722 12.9327 60.3606 12.9222C61.249 12.9117 62.127 13.1137 62.9215 13.5113L54.9628 19.6182C54.8409 19.0082 54.8194 18.3824 54.8988 17.7654Z" fill="#00B26B"/>
<path d="M152.231 16.0809H148.569C148.156 16.071 147.762 15.8997 147.473 15.6036C147.184 15.3075 147.022 14.9102 147.022 14.4964C147.022 14.0826 147.184 13.6852 147.473 13.3892C147.762 13.0931 148.156 12.9218 148.569 12.9118H156.57C157.111 11.1129 157.388 9.24483 157.393 7.36621H148.192C146.395 7.36621 144.672 8.07987 143.402 9.35018C142.132 10.6205 141.418 12.3434 141.418 14.1399C141.418 15.9364 142.132 17.6593 143.402 18.9296C144.672 20.1999 146.395 20.9136 148.192 20.9136H151.853C152.061 20.9136 152.266 20.9545 152.458 21.0339C152.65 21.1133 152.824 21.2297 152.971 21.3765C153.118 21.5232 153.234 21.6975 153.314 21.8892C153.393 22.0809 153.434 22.2865 153.434 22.494C153.434 22.7015 153.393 22.9071 153.314 23.0988C153.234 23.2905 153.118 23.4648 152.971 23.6115C152.824 23.7583 152.65 23.8747 152.458 23.9541C152.266 24.0335 152.061 24.0744 151.853 24.0744H142.774C142.23 25.873 141.952 27.7418 141.951 29.621H152.223C154.018 29.6219 155.741 28.9096 157.011 27.6407C158.281 26.3717 158.995 24.6501 158.996 22.8546C158.997 21.0591 158.285 19.3367 157.016 18.0664C155.747 16.7961 154.026 16.0819 152.231 16.0809Z" fill="#00B26B"/>
</g>
</g>
<defs>
<clipPath id="clip0_10719_10410">
<rect width="159" height="29.2711" fill="white" transform="translate(0 0.364258)"/>
</clipPath>
<clipPath id="clip1_10719_10410">
<rect width="152" height="29.2711" fill="white" transform="translate(7 0.364258)"/>
</clipPath>
</defs>
</svg>