<?xml version="1.0" standalone="no"?>
<!DOCTYPE svg PUBLIC "-//W3C//DTD SVG 20010904//EN"
 "http://www.w3.org/TR/2001/REC-SVG-20010904/DTD/svg10.dtd">
<svg version="1.0" xmlns="http://www.w3.org/2000/svg"
 width="432.000000pt" height="190.000000pt" viewBox="0 0 432.000000 190.000000"
 preserveAspectRatio="xMidYMid meet">
<metadata>
Created by potrace 1.16, written by Peter Selinger 2001-2019
</metadata>
<g transform="translate(0.000000,190.000000) scale(0.100000,-0.100000)"
fill="#000000" stroke="none">
<path d="M805 1870 c-22 -4 -61 -11 -87 -14 -25 -4 -56 -16 -69 -26 -12 -11
-29 -20 -39 -20 -9 0 -21 -5 -28 -12 -7 -7 -12 -9 -12 -4 0 4 -7 0 -16 -9 -9
-9 -23 -14 -31 -11 -8 3 -11 1 -8 -4 3 -6 2 -10 -4 -10 -5 0 -13 5 -16 10 -3
6 -11 10 -18 10 -6 0 -2 -6 9 -14 16 -12 16 -15 4 -19 -40 -14 -69 -16 -75 -7
-12 19 -21 10 -17 -18 4 -30 -30 -73 -43 -53 -3 6 -11 11 -16 11 -6 0 -7 -4
-4 -10 3 -5 0 -10 -8 -10 -8 0 -20 -6 -26 -14 -9 -11 -8 -15 6 -21 15 -6 12
-12 -22 -42 -22 -19 -40 -37 -40 -41 0 -16 -88 -121 -96 -116 -5 3 -9 -1 -9
-8 0 -9 -3 -9 -10 2 -8 11 -10 2 -8 -32 1 -26 -1 -51 -5 -54 -4 -4 -7 -1 -7 7
-1 8 -7 -1 -15 -20 -18 -39 -18 -44 -5 -36 6 3 10 2 10 -3 0 -5 -9 -12 -21
-15 -17 -5 -20 -12 -18 -49 2 -24 -3 -63 -10 -88 -18 -63 -21 -358 -3 -369 7
-4 11 -22 10 -42 -2 -19 2 -33 7 -32 6 1 11 -13 12 -30 3 -44 33 -118 44 -111
8 5 13 -9 10 -28 0 -5 4 -8 9 -8 7 0 7 -7 -1 -21 -6 -12 -7 -19 -1 -15 11 6
22 -15 22 -43 0 -23 40 -57 62 -53 10 2 19 -2 19 -10 1 -7 2 -18 3 -25 1 -16
37 -42 59 -43 11 0 17 -8 17 -25 0 -26 28 -48 69 -54 5 0 11 -10 14 -22 3 -13
12 -19 24 -17 21 4 25 -23 4 -30 -8 -3 -11 0 -7 6 3 5 -1 13 -10 16 -24 9 -27
7 -11 -9 9 -8 18 -20 20 -27 4 -10 7 -10 15 1 7 10 14 11 31 2 12 -7 19 -16
16 -22 -4 -5 3 -9 15 -9 11 0 42 -11 68 -24 42 -21 119 -43 162 -46 98 -7 131
-13 119 -21 -19 -12 62 -11 181 2 52 6 113 10 135 10 22 0 61 6 87 14 25 7 49
11 52 8 3 -4 6 1 6 11 0 9 4 15 9 12 14 -9 132 45 124 57 -4 7 6 8 28 3 19 -3
36 -11 37 -16 2 -6 20 -10 39 -10 38 0 78 33 69 56 -3 8 1 11 10 7 9 -3 12
-12 8 -25 -5 -16 -3 -18 7 -12 36 22 46 15 44 -29 -3 -35 2 -47 28 -74 36 -38
56 -42 52 -11 -7 57 -18 97 -25 93 -10 -6 -25 34 -16 42 3 4 6 0 6 -8 0 -12
74 -14 494 -14 382 0 496 3 505 12 9 10 8 13 -3 13 -8 0 -22 10 -30 22 -12 17
-24 22 -51 19 -35 -3 -35 -2 -36 41 -1 40 -2 41 -9 13 -4 -16 -8 -24 -9 -17
-2 24 -21 12 -21 -14 l0 -26 -110 4 c-84 2 -113 7 -120 18 -8 13 -10 13 -10
-2 0 -14 -12 -17 -88 -17 -59 0 -98 -6 -118 -16 -39 -20 -114 -20 -114 0 0 8
-5 15 -11 15 -7 0 -18 8 -26 18 -8 9 -12 11 -8 5 3 -7 1 -13 -4 -13 -6 0 -11
7 -11 15 0 8 -5 15 -11 15 -6 0 -9 -6 -6 -14 8 -21 -14 -26 -122 -26 -112 0
-147 15 -137 56 5 17 2 26 -9 30 -23 9 -18 37 13 64 31 27 92 40 92 20 0 -9 4
-10 13 -1 17 13 166 -10 177 -29 6 -9 9 -9 12 1 3 10 27 14 89 14 108 1 119
-2 119 -31 0 -17 6 -24 20 -24 15 0 20 7 20 25 0 14 3 25 8 26 46 6 132 6 132
-1 0 -16 42 -23 51 -9 10 16 225 24 234 9 3 -5 17 -5 31 0 28 11 124 13 148 4
9 -3 16 -12 16 -20 0 -19 15 -18 36 4 19 18 107 23 124 6 5 -5 13 -38 18 -74
l10 -65 1 75 c0 44 6 81 13 88 17 17 215 17 221 0 4 -11 7 -11 18 0 20 19 60
14 88 -10 14 -13 20 -16 13 -7 -19 25 5 30 107 22 61 -4 90 -2 95 6 5 8 -15
11 -69 11 -65 0 -76 2 -71 15 4 12 -4 15 -38 15 -23 0 -45 3 -49 6 -10 10 4
34 20 34 9 0 22 8 29 17 12 16 13 14 9 -17 -4 -27 -3 -30 4 -15 8 17 10 18 10
3 1 -22 21 -24 21 -3 0 13 24 15 159 15 96 0 162 -4 166 -10 8 -13 55 -13 55
0 0 6 7 10 15 10 8 0 15 9 15 20 0 11 -5 20 -11 20 -5 0 -8 4 -4 9 3 5 1 12
-5 16 -5 3 -10 2 -10 -3 0 -5 -7 -9 -15 -9 -10 0 -12 4 -5 12 5 7 7 15 3 19
-4 4 0 4 10 0 15 -5 17 3 17 86 0 83 -2 94 -22 111 -13 10 -29 18 -36 19 -7 0
-10 5 -7 10 3 6 -2 10 -12 10 -16 0 -19 -10 -23 -72 -2 -40 -4 -93 -4 -118
l-1 -45 -111 -3 -111 -3 -7 47 c-7 54 -7 155 1 137 2 -7 9 -13 14 -13 4 0 6 7
3 15 -4 8 -12 15 -20 15 -11 0 -14 -22 -15 -102 -2 -119 -7 -105 -11 34 -2 54
0 92 4 85 5 -8 8 -4 8 11 0 19 -4 22 -21 17 -13 -4 -27 -1 -39 10 -11 10 -26
15 -34 12 -9 -4 -18 -2 -21 3 -13 22 -99 7 -94 -16 1 -5 1 -75 0 -156 l-1
-148 -39 0 c-22 0 -42 -4 -45 -9 -3 -5 -15 -11 -26 -14 -21 -5 -21 -5 -2 26
13 24 26 33 50 35 18 2 32 8 32 13 0 6 -12 9 -27 7 -27 -3 -28 -2 -38 80 -9
68 -9 82 3 77 7 -3 10 0 7 6 -4 6 -13 8 -20 5 -7 -2 -21 4 -30 14 -13 14 -33
18 -111 19 l-94 2 0 -26 c0 -25 8 -30 75 -38 17 -3 -19 -4 -80 -4 -83 0 -118
-4 -141 -16 -17 -9 -34 -13 -37 -10 -4 3 -15 0 -24 -8 -16 -13 -17 -12 -5 3
12 15 10 18 -20 27 -31 9 -31 10 -10 16 25 8 27 15 10 34 -8 9 -8 11 -2 8 14
-8 27 20 14 28 -21 13 -354 6 -393 -8 -20 -7 -35 -16 -31 -19 6 -7 -23 -68
-33 -68 -3 0 -3 3 0 7 4 3 -3 18 -15 31 -13 14 -17 22 -10 18 6 -4 12 -3 12 3
0 11 -28 17 -120 27 -36 3 -72 11 -80 18 -13 10 -13 9 -1 -6 9 -12 10 -18 2
-18 -6 0 -11 -11 -11 -25 0 -19 -6 -25 -22 -27 -13 -1 18 -5 67 -8 l90 -6
-122 -2 c-67 -1 -128 -5 -136 -8 -16 -6 -18 18 -4 32 14 14 6 23 -45 48 -32
16 -69 26 -96 26 -24 0 -41 4 -38 9 7 10 174 26 249 23 28 -1 47 3 47 10 0 6
13 8 35 4 19 -4 42 -2 52 3 21 11 202 33 214 25 4 -2 7 5 6 16 -1 14 -12 23
-37 29 -66 17 -120 23 -120 13 0 -5 30 -13 66 -17 36 -4 63 -9 61 -12 -3 -2
-70 3 -149 12 -384 45 -368 43 -303 44 33 1 67 6 75 11 11 7 -5 10 -55 8 -38
-1 -95 2 -125 7 -38 5 -52 4 -45 -3 6 -5 19 -13 30 -16 11 -3 -2 -3 -30 1 -27
3 -75 7 -105 8 -185 11 -250 19 -250 31 0 7 -9 19 -19 26 -11 8 -23 26 -26 41
-4 15 -10 25 -14 23 -3 -2 -7 19 -9 46 -4 65 -43 144 -75 152 -20 5 -23 10
-19 36 3 19 0 30 -8 30 -20 0 -40 26 -28 38 7 7 7 16 -1 29 -9 16 -10 16 -11
-7 0 -21 -3 -19 -19 17 -11 23 -17 52 -14 65 4 18 3 20 -6 8 -8 -12 -12 -8
-18 20 -4 19 -6 39 -4 45 1 5 -1 7 -5 3 -11 -12 -33 24 -34 54 0 38 -10 58
-25 52 -7 -3 -15 2 -19 11 -3 9 -2 13 4 10 6 -3 7 1 4 10 -4 8 -15 20 -25 25
-27 15 -35 12 -13 -5 12 -9 14 -14 6 -15 -7 0 -11 -4 -8 -9 10 -15 -5 -40 -20
-34 -11 4 -14 -4 -14 -35 0 -27 -5 -42 -16 -46 -9 -4 -14 -13 -10 -21 3 -8 0
-14 -7 -12 -7 1 -12 -11 -13 -29 -2 -37 -19 -71 -46 -97 -10 -10 -16 -22 -13
-27 7 -12 -25 -90 -37 -90 -5 0 -7 -4 -3 -9 7 -12 -26 -82 -35 -76 -4 3 -7 -7
-7 -21 0 -15 -7 -30 -14 -35 -8 -5 -10 -9 -6 -9 4 0 2 -10 -5 -22 -7 -13 -13
-26 -14 -30 -1 -5 -2 -11 -3 -15 -1 -5 -8 1 -16 11 -11 15 -15 16 -15 5 0 -8
5 -20 12 -27 9 -9 9 -12 0 -12 -6 0 -9 -6 -6 -14 3 -8 0 -17 -5 -21 -6 -3 -9
-11 -6 -16 4 -5 -1 -9 -9 -9 -9 0 -16 -5 -16 -11 0 -5 4 -7 10 -4 6 3 7 -1 4
-9 -4 -11 -19 -16 -43 -16 -21 0 -41 -3 -45 -7 -10 -10 -80 -33 -85 -28 -2 3
2 5 9 5 7 0 11 2 8 5 -12 12 -58 -19 -58 -39 -1 -12 -1 -42 -2 -68 0 -40 -4
-48 -19 -48 -15 0 -19 -8 -19 -40 0 -39 1 -40 35 -40 31 0 35 3 36 28 1 21 2
22 6 7 3 -11 10 -23 16 -27 8 -5 7 -14 -1 -33 -17 -36 -14 -55 3 -25 17 30 20
21 4 -14 -7 -14 -16 -23 -20 -20 -5 3 -9 2 -10 -3 -3 -44 -10 -68 -19 -71 -5
-2 -10 -10 -10 -18 0 -8 -5 -14 -11 -14 -6 0 -8 7 -5 16 3 8 2 13 -3 10 -11
-7 -44 42 -44 64 0 8 -5 18 -11 22 -5 4 -9 25 -8 48 2 31 -1 41 -10 37 -7 -2
-12 -13 -10 -23 2 -19 2 -19 -9 0 -13 21 -13 154 0 170 13 18 13 224 0 280
-15 59 -29 81 -30 46 0 -14 -5 -34 -10 -45 -6 -14 -7 -6 -3 25 4 25 9 47 13
50 3 3 7 16 7 30 1 14 9 41 17 60 16 34 16 34 11 5 -5 -24 0 -20 20 20 31 61
35 44 4 -20 -12 -24 -20 -46 -17 -48 2 -1 34 -1 72 1 l67 4 0 65 c0 72 12 93
54 93 21 0 26 5 26 26 0 33 21 54 54 54 22 0 26 4 26 29 0 16 7 36 15 45 17
16 21 76 5 76 -5 0 -10 5 -10 10 0 6 16 10 36 10 38 0 124 46 124 66 0 15 272
39 344 30 59 -7 78 7 25 18 -47 9 -103 7 -196 -6 -61 -9 -86 -9 -94 -1 -8 8
-1 14 27 22 48 13 93 14 54 1 -22 -8 -21 -9 10 -7 22 1 34 7 32 15 -1 9 18 12
75 10 l78 -2 -70 -5 -70 -6 100 -8 c109 -8 198 -26 232 -45 12 -6 37 -12 55
-12 32 1 32 1 13 17 -16 13 -17 15 -2 10 9 -4 17 -3 17 1 0 9 -98 52 -119 52
-7 0 -27 10 -44 22 -23 16 -45 22 -84 22 -29 0 -53 3 -53 6 0 9 -289 9 -335 0z
m699 -1105 c4 -11 23 -15 73 -16 37 0 62 -3 55 -6 -6 -2 -10 -9 -6 -14 3 -5
-2 -9 -10 -9 -14 0 -16 -17 -16 -113 0 -77 4 -117 13 -126 10 -10 8 -12 -7 -9
-11 2 -32 29 -52 68 -29 56 -34 72 -30 116 3 36 0 58 -10 73 -17 24 -34 20
-28 -7 3 -9 1 -28 -4 -41 -8 -22 -9 -20 -25 21 -15 38 -15 41 -1 23 16 -19 16
-19 10 8 -4 19 -3 26 3 22 7 -3 8 0 5 9 -4 10 -1 16 9 16 8 0 17 -7 21 -15z
m-486 -53 c216 4 262 3 262 -8 0 -8 6 -14 13 -14 7 0 4 -7 -7 -15 -20 -15 -20
-15 0 -15 22 0 77 -54 67 -64 -4 -3 2 -6 11 -6 12 0 16 -5 12 -16 -4 -10 -2
-13 6 -8 8 5 9 2 5 -10 -5 -14 -3 -17 8 -12 26 10 45 -5 45 -35 0 -17 6 -32
15 -36 20 -7 48 -61 41 -79 -3 -8 -16 -14 -30 -14 -21 0 -24 -5 -28 -42 -3
-24 -1 -51 4 -60 7 -15 4 -18 -24 -20 -18 0 -42 -1 -53 0 -19 2 -19 1 -2 -12
17 -13 16 -15 -16 -25 -19 -7 -39 -11 -43 -10 -5 1 -16 0 -24 -4 -41 -16 -146
-25 -244 -22 -110 4 -156 14 -75 16 37 1 33 3 -25 10 -39 5 -74 8 -80 6 -5 -2
-19 7 -32 20 -13 13 -35 23 -49 23 -14 0 -33 9 -42 20 -10 11 -22 20 -28 20
-5 0 -3 -5 5 -10 12 -8 10 -10 -8 -10 -15 0 -21 4 -16 12 5 8 2 9 -9 5 -21 -8
-54 22 -36 33 7 5 9 15 4 26 -4 11 -7 38 -6 61 l2 41 -55 4 c-41 2 -55 0 -52
-9 3 -7 1 -15 -5 -18 -5 -4 -9 -3 -8 2 3 20 -2 25 -16 13 -11 -9 -17 -9 -29 3
-13 12 -11 19 17 53 17 21 40 45 49 52 10 7 18 19 18 26 0 13 29 76 34 76 2 0
1 -11 -2 -25 -5 -29 15 -35 25 -7 4 9 11 20 15 23 5 3 10 14 12 23 1 10 9 22
17 27 12 8 12 10 0 18 -25 16 21 18 59 3 28 -12 85 -14 298 -10z"/>
<path d="M4138 369 c-5 -4 11 -10 37 -13 38 -6 48 -12 56 -34 6 -15 8 -44 6
-64 l-5 -38 44 0 44 0 0 80 0 79 -86 -2 c-47 -1 -90 -5 -96 -8z"/>
</g>
</svg>
